<mxfile host="drawio-plugin" modified="2022-03-02T14:21:35.531Z" agent="5.0 (Macintosh; Intel Mac OS X 12_2_1) AppleWebKit/537.36 (KHTML, like Gecko) Chrome/89.0.4389.114 Safari/537.36" etag="m2aMYESzP2vK5mMKjl_e" version="15.5.4" type="embed" pages="3"><diagram id="BHHM29xauYsLqlmP6PTI" name="Production"><mxGraphModel dx="1592" dy="1632" grid="1" gridSize="10" guides="1" tooltips="1" connect="1" arrows="1" fold="1" page="1" pageScale="1" pageWidth="1100" pageHeight="850" math="0" shadow="0"><root><mxCell id="0"/><mxCell id="1" parent="0"/><mxCell id="h-mfdgKE4E6g7ha8phpf-2" value="Azure" style="rounded=0;whiteSpace=wrap;html=1;verticalAlign=top;align=left;" parent="1" vertex="1"><mxGeometry x="-30" y="-30" width="970" height="1210" as="geometry"/></mxCell><mxCell id="h-mfdgKE4E6g7ha8phpf-3" value="Edge VNet" style="rounded=0;whiteSpace=wrap;html=1;verticalAlign=top;align=left;dashed=1;" parent="1" vertex="1"><mxGeometry x="-10" y="10" width="770" height="430" as="geometry"/></mxCell><mxCell id="h-mfdgKE4E6g7ha8phpf-1" value="" style="aspect=fixed;html=1;points=[];align=center;image;fontSize=12;image=img/lib/azure2/networking/Virtual_Networks.svg;" parent="1" vertex="1"><mxGeometry x="610" y="430" width="33.5" height="20" as="geometry"/></mxCell><mxCell id="2" value="Zone 1" style="rounded=0;whiteSpace=wrap;html=1;align=center;verticalAlign=top;" vertex="1" parent="1"><mxGeometry x="80" y="50" width="170" height="370" as="geometry"/></mxCell><mxCell id="3" value="Zone 2" style="rounded=0;whiteSpace=wrap;html=1;align=center;verticalAlign=top;" vertex="1" parent="1"><mxGeometry x="275" y="50" width="165" height="370" as="geometry"/></mxCell><mxCell id="4" value="Zone 2" style="rounded=0;whiteSpace=wrap;html=1;align=center;verticalAlign=top;" vertex="1" parent="1"><mxGeometry x="465" y="50" width="165" height="370" as="geometry"/></mxCell><mxCell id="52" value="" style="rounded=0;whiteSpace=wrap;html=1;align=left;verticalAlign=top;" vertex="1" parent="1"><mxGeometry x="90" y="90" width="530" height="120" as="geometry"/></mxCell><mxCell id="5" value="Ingress" style="rounded=0;whiteSpace=wrap;html=1;align=left;verticalAlign=top;" vertex="1" parent="1"><mxGeometry x="100" y="100" width="130" height="100" as="geometry"/></mxCell><mxCell id="8" value="VPN&lt;br&gt;server" style="aspect=fixed;html=1;points=[];align=center;image;fontSize=12;image=img/lib/azure2/networking/Virtual_Network_Gateways.svg;labelPosition=center;verticalLabelPosition=bottom;verticalAlign=top;" vertex="1" parent="1"><mxGeometry x="120" y="119.99999999999997" width="30" height="39.81" as="geometry"/></mxCell><mxCell id="53" value="" style="rounded=0;whiteSpace=wrap;html=1;align=left;verticalAlign=top;" vertex="1" parent="1"><mxGeometry x="90" y="220" width="530" height="90" as="geometry"/></mxCell><mxCell id="11" value="Bastion subnet" style="rounded=0;whiteSpace=wrap;html=1;align=left;verticalAlign=top;" vertex="1" parent="1"><mxGeometry x="97.5" y="230" width="130" height="70" as="geometry"/></mxCell><mxCell id="12" value="Bastion subnet" style="rounded=0;whiteSpace=wrap;html=1;align=left;verticalAlign=top;" vertex="1" parent="1"><mxGeometry x="292.5" y="230" width="130" height="70" as="geometry"/></mxCell><mxCell id="13" value="Bastion subnet" style="rounded=0;whiteSpace=wrap;html=1;align=left;verticalAlign=top;" vertex="1" parent="1"><mxGeometry x="480" y="230" width="130" height="70" as="geometry"/></mxCell><mxCell id="17" value="Bastion" style="aspect=fixed;html=1;points=[];align=right;image;fontSize=12;image=img/lib/azure2/networking/Front_Doors.svg;labelPosition=left;verticalLabelPosition=middle;verticalAlign=middle;" vertex="1" parent="1"><mxGeometry x="162" y="247.65" width="48" height="42.35" as="geometry"/></mxCell><mxCell id="18" value="Bastion" style="aspect=fixed;html=1;points=[];align=right;image;fontSize=12;image=img/lib/azure2/networking/Front_Doors.svg;labelPosition=left;verticalLabelPosition=middle;verticalAlign=middle;" vertex="1" parent="1"><mxGeometry x="362" y="247.65" width="48" height="42.35" as="geometry"/></mxCell><mxCell id="19" value="Bastion" style="aspect=fixed;html=1;points=[];align=right;image;fontSize=12;image=img/lib/azure2/networking/Front_Doors.svg;labelPosition=left;verticalLabelPosition=middle;verticalAlign=middle;" vertex="1" parent="1"><mxGeometry x="552" y="247.64999999999998" width="48" height="42.35" as="geometry"/></mxCell><mxCell id="54" value="" style="rounded=0;whiteSpace=wrap;html=1;align=left;verticalAlign=top;" vertex="1" parent="1"><mxGeometry x="90" y="320" width="530" height="90" as="geometry"/></mxCell><mxCell id="20" value="Egress subnet" style="rounded=0;whiteSpace=wrap;html=1;align=left;verticalAlign=top;" vertex="1" parent="1"><mxGeometry x="98.75" y="330" width="130" height="70" as="geometry"/></mxCell><mxCell id="21" value="Egress subnet" style="rounded=0;whiteSpace=wrap;html=1;align=left;verticalAlign=top;" vertex="1" parent="1"><mxGeometry x="293.75" y="330" width="130" height="70" as="geometry"/></mxCell><mxCell id="22" value="Egress subnet" style="rounded=0;whiteSpace=wrap;html=1;align=left;verticalAlign=top;" vertex="1" parent="1"><mxGeometry x="481.25" y="330" width="130" height="70" as="geometry"/></mxCell><mxCell id="26" value="Proxy" style="pointerEvents=1;shadow=0;dashed=0;html=1;strokeColor=none;fillColor=#4495D1;labelPosition=left;verticalLabelPosition=middle;verticalAlign=middle;align=right;outlineConnect=0;shape=mxgraph.veeam.2d.proxy;" vertex="1" parent="1"><mxGeometry x="170" y="350" width="40" height="37.4" as="geometry"/></mxCell><mxCell id="27" value="Proxy" style="pointerEvents=1;shadow=0;dashed=0;html=1;strokeColor=none;fillColor=#4495D1;labelPosition=left;verticalLabelPosition=middle;verticalAlign=middle;align=right;outlineConnect=0;shape=mxgraph.veeam.2d.proxy;" vertex="1" parent="1"><mxGeometry x="366" y="350" width="40" height="37.4" as="geometry"/></mxCell><mxCell id="28" value="Proxy" style="pointerEvents=1;shadow=0;dashed=0;html=1;strokeColor=none;fillColor=#4495D1;labelPosition=left;verticalLabelPosition=middle;verticalAlign=middle;align=right;outlineConnect=0;shape=mxgraph.veeam.2d.proxy;" vertex="1" parent="1"><mxGeometry x="560" y="350" width="40" height="37.4" as="geometry"/></mxCell><mxCell id="55" value="Development VNet" style="rounded=0;whiteSpace=wrap;html=1;verticalAlign=top;align=left;dashed=1;" vertex="1" parent="1"><mxGeometry x="60" y="470" width="590" height="320" as="geometry"/></mxCell><mxCell id="56" value="" style="aspect=fixed;html=1;points=[];align=center;image;fontSize=12;image=img/lib/azure2/networking/Virtual_Networks.svg;" vertex="1" parent="1"><mxGeometry x="610" y="780" width="33.5" height="20" as="geometry"/></mxCell><mxCell id="57" value="Zone 1" style="rounded=0;whiteSpace=wrap;html=1;align=center;verticalAlign=top;" vertex="1" parent="1"><mxGeometry x="80" y="500" width="170" height="270" as="geometry"/></mxCell><mxCell id="58" value="Zone 2" style="rounded=0;whiteSpace=wrap;html=1;align=center;verticalAlign=top;" vertex="1" parent="1"><mxGeometry x="275" y="500" width="165" height="270" as="geometry"/></mxCell><mxCell id="59" value="Zone 2" style="rounded=0;whiteSpace=wrap;html=1;align=center;verticalAlign=top;" vertex="1" parent="1"><mxGeometry x="465" y="500" width="165" height="270" as="geometry"/></mxCell><mxCell id="60" value="" style="rounded=0;whiteSpace=wrap;html=1;align=left;verticalAlign=top;" vertex="1" parent="1"><mxGeometry x="90" y="529.9" width="530" height="110.1" as="geometry"/></mxCell><mxCell id="61" value="Worker subnet" style="rounded=0;whiteSpace=wrap;html=1;align=left;verticalAlign=top;" vertex="1" parent="1"><mxGeometry x="100" y="540" width="130" height="80" as="geometry"/></mxCell><mxCell id="74" value="" style="rounded=0;whiteSpace=wrap;html=1;align=left;verticalAlign=top;" vertex="1" parent="1"><mxGeometry x="90" y="660" width="530" height="90" as="geometry"/></mxCell><mxCell id="75" value="VPE subnet" style="rounded=0;whiteSpace=wrap;html=1;align=left;verticalAlign=top;" vertex="1" parent="1"><mxGeometry x="98.75" y="670" width="130" height="70" as="geometry"/></mxCell><mxCell id="76" value="VPE subnet" style="rounded=0;whiteSpace=wrap;html=1;align=left;verticalAlign=top;" vertex="1" parent="1"><mxGeometry x="293.75" y="670" width="130" height="70" as="geometry"/></mxCell><mxCell id="77" value="VPE subnet" style="rounded=0;whiteSpace=wrap;html=1;align=left;verticalAlign=top;" vertex="1" parent="1"><mxGeometry x="481.25" y="670" width="130" height="70" as="geometry"/></mxCell><mxCell id="81" value="" style="sketch=0;aspect=fixed;html=1;points=[];align=center;image;fontSize=12;image=img/lib/mscae/OpenShift.svg;" vertex="1" parent="1"><mxGeometry x="110" y="570" width="50" height="46" as="geometry"/></mxCell><mxCell id="82" value="" style="sketch=0;aspect=fixed;html=1;points=[];align=center;image;fontSize=12;image=img/lib/mscae/OpenShift.svg;" vertex="1" parent="1"><mxGeometry x="170" y="561.95" width="50" height="46" as="geometry"/></mxCell><mxCell id="83" value="Worker subnet" style="rounded=0;whiteSpace=wrap;html=1;align=left;verticalAlign=top;" vertex="1" parent="1"><mxGeometry x="292.5" y="544.95" width="130" height="80" as="geometry"/></mxCell><mxCell id="84" value="" style="sketch=0;aspect=fixed;html=1;points=[];align=center;image;fontSize=12;image=img/lib/mscae/OpenShift.svg;" vertex="1" parent="1"><mxGeometry x="302.5" y="574.95" width="50" height="46" as="geometry"/></mxCell><mxCell id="85" value="" style="sketch=0;aspect=fixed;html=1;points=[];align=center;image;fontSize=12;image=img/lib/mscae/OpenShift.svg;" vertex="1" parent="1"><mxGeometry x="362.5" y="566.9000000000001" width="50" height="46" as="geometry"/></mxCell><mxCell id="86" value="Worker subnet" style="rounded=0;whiteSpace=wrap;html=1;align=left;verticalAlign=top;" vertex="1" parent="1"><mxGeometry x="480" y="544.95" width="130" height="80" as="geometry"/></mxCell><mxCell id="87" value="" style="sketch=0;aspect=fixed;html=1;points=[];align=center;image;fontSize=12;image=img/lib/mscae/OpenShift.svg;" vertex="1" parent="1"><mxGeometry x="490" y="574.95" width="50" height="46" as="geometry"/></mxCell><mxCell id="88" value="" style="sketch=0;aspect=fixed;html=1;points=[];align=center;image;fontSize=12;image=img/lib/mscae/OpenShift.svg;" vertex="1" parent="1"><mxGeometry x="550" y="566.9000000000001" width="50" height="46" as="geometry"/></mxCell><mxCell id="89" value="" style="aspect=fixed;html=1;points=[];align=center;image;fontSize=12;image=img/lib/azure2/networking/Private_Endpoint.svg;" vertex="1" parent="1"><mxGeometry x="170" y="688.5" width="44" height="40.34" as="geometry"/></mxCell><mxCell id="90" value="" style="aspect=fixed;html=1;points=[];align=center;image;fontSize=12;image=img/lib/azure2/networking/Private_Endpoint.svg;" vertex="1" parent="1"><mxGeometry x="362.5" y="688.5" width="44" height="40.34" as="geometry"/></mxCell><mxCell id="91" value="" style="aspect=fixed;html=1;points=[];align=center;image;fontSize=12;image=img/lib/azure2/networking/Private_Endpoint.svg;" vertex="1" parent="1"><mxGeometry x="553" y="688.5" width="44" height="40.34" as="geometry"/></mxCell><mxCell id="92" value="Production VNet" style="rounded=0;whiteSpace=wrap;html=1;verticalAlign=top;align=left;dashed=1;" vertex="1" parent="1"><mxGeometry x="60" y="820" width="590" height="330" as="geometry"/></mxCell><mxCell id="93" value="" style="aspect=fixed;html=1;points=[];align=center;image;fontSize=12;image=img/lib/azure2/networking/Virtual_Networks.svg;" vertex="1" parent="1"><mxGeometry x="616.5" y="1140" width="33.5" height="20" as="geometry"/></mxCell><mxCell id="94" value="Zone 1" style="rounded=0;whiteSpace=wrap;html=1;align=center;verticalAlign=top;" vertex="1" parent="1"><mxGeometry x="80" y="850" width="170" height="270" as="geometry"/></mxCell><mxCell id="95" value="Zone 2" style="rounded=0;whiteSpace=wrap;html=1;align=center;verticalAlign=top;" vertex="1" parent="1"><mxGeometry x="275" y="850" width="165" height="270" as="geometry"/></mxCell><mxCell id="96" value="Zone 2" style="rounded=0;whiteSpace=wrap;html=1;align=center;verticalAlign=top;" vertex="1" parent="1"><mxGeometry x="465" y="850" width="165" height="270" as="geometry"/></mxCell><mxCell id="97" value="" style="rounded=0;whiteSpace=wrap;html=1;align=left;verticalAlign=top;" vertex="1" parent="1"><mxGeometry x="90" y="879.9" width="530" height="110.1" as="geometry"/></mxCell><mxCell id="98" value="Worker subnet" style="rounded=0;whiteSpace=wrap;html=1;align=left;verticalAlign=top;" vertex="1" parent="1"><mxGeometry x="100" y="890" width="130" height="80" as="geometry"/></mxCell><mxCell id="99" value="" style="rounded=0;whiteSpace=wrap;html=1;align=left;verticalAlign=top;" vertex="1" parent="1"><mxGeometry x="90" y="1010" width="530" height="90" as="geometry"/></mxCell><mxCell id="100" value="VPE subnet" style="rounded=0;whiteSpace=wrap;html=1;align=left;verticalAlign=top;" vertex="1" parent="1"><mxGeometry x="98.75" y="1020" width="130" height="70" as="geometry"/></mxCell><mxCell id="101" value="VPE subnet" style="rounded=0;whiteSpace=wrap;html=1;align=left;verticalAlign=top;" vertex="1" parent="1"><mxGeometry x="293.75" y="1020" width="130" height="70" as="geometry"/></mxCell><mxCell id="102" value="VPE subnet" style="rounded=0;whiteSpace=wrap;html=1;align=left;verticalAlign=top;" vertex="1" parent="1"><mxGeometry x="481.25" y="1020" width="130" height="70" as="geometry"/></mxCell><mxCell id="103" value="" style="sketch=0;aspect=fixed;html=1;points=[];align=center;image;fontSize=12;image=img/lib/mscae/OpenShift.svg;" vertex="1" parent="1"><mxGeometry x="110" y="920" width="50" height="46" as="geometry"/></mxCell><mxCell id="104" value="" style="sketch=0;aspect=fixed;html=1;points=[];align=center;image;fontSize=12;image=img/lib/mscae/OpenShift.svg;" vertex="1" parent="1"><mxGeometry x="170" y="911.95" width="50" height="46" as="geometry"/></mxCell><mxCell id="105" value="Worker subnet" style="rounded=0;whiteSpace=wrap;html=1;align=left;verticalAlign=top;" vertex="1" parent="1"><mxGeometry x="292.5" y="894.95" width="130" height="80" as="geometry"/></mxCell><mxCell id="106" value="" style="sketch=0;aspect=fixed;html=1;points=[];align=center;image;fontSize=12;image=img/lib/mscae/OpenShift.svg;" vertex="1" parent="1"><mxGeometry x="302.5" y="924.95" width="50" height="46" as="geometry"/></mxCell><mxCell id="107" value="" style="sketch=0;aspect=fixed;html=1;points=[];align=center;image;fontSize=12;image=img/lib/mscae/OpenShift.svg;" vertex="1" parent="1"><mxGeometry x="362.5" y="916.9000000000001" width="50" height="46" as="geometry"/></mxCell><mxCell id="108" value="Worker subnet" style="rounded=0;whiteSpace=wrap;html=1;align=left;verticalAlign=top;" vertex="1" parent="1"><mxGeometry x="480" y="894.95" width="130" height="80" as="geometry"/></mxCell><mxCell id="109" value="" style="sketch=0;aspect=fixed;html=1;points=[];align=center;image;fontSize=12;image=img/lib/mscae/OpenShift.svg;" vertex="1" parent="1"><mxGeometry x="490" y="924.95" width="50" height="46" as="geometry"/></mxCell><mxCell id="110" value="" style="sketch=0;aspect=fixed;html=1;points=[];align=center;image;fontSize=12;image=img/lib/mscae/OpenShift.svg;" vertex="1" parent="1"><mxGeometry x="550" y="916.9000000000001" width="50" height="46" as="geometry"/></mxCell><mxCell id="111" value="" style="aspect=fixed;html=1;points=[];align=center;image;fontSize=12;image=img/lib/azure2/networking/Private_Endpoint.svg;" vertex="1" parent="1"><mxGeometry x="170" y="1038.5" width="44" height="40.34" as="geometry"/></mxCell><mxCell id="112" value="" style="aspect=fixed;html=1;points=[];align=center;image;fontSize=12;image=img/lib/azure2/networking/Private_Endpoint.svg;" vertex="1" parent="1"><mxGeometry x="362.5" y="1038.5" width="44" height="40.34" as="geometry"/></mxCell><mxCell id="113" value="" style="aspect=fixed;html=1;points=[];align=center;image;fontSize=12;image=img/lib/azure2/networking/Private_Endpoint.svg;" vertex="1" parent="1"><mxGeometry x="553" y="1038.5" width="44" height="40.34" as="geometry"/></mxCell><mxCell id="114" value="Cloud services" style="rounded=0;whiteSpace=wrap;html=1;align=left;verticalAlign=top;" vertex="1" parent="1"><mxGeometry x="730" y="544.95" width="120" height="535.05" as="geometry"/></mxCell><mxCell id="115" value="Montoring" style="aspect=fixed;html=1;points=[];align=center;image;fontSize=12;image=img/lib/azure2/management_governance/Monitor.svg;" vertex="1" parent="1"><mxGeometry x="758" y="600" width="64" height="64" as="geometry"/></mxCell><mxCell id="116" value="Log Analytics" style="aspect=fixed;html=1;points=[];align=center;image;fontSize=12;image=img/lib/azure2/analytics/Log_Analytics_Workspaces.svg;" vertex="1" parent="1"><mxGeometry x="758" y="710" width="64" height="64" as="geometry"/></mxCell><mxCell id="118" value="Blob Storage" style="aspect=fixed;html=1;points=[];align=center;image;fontSize=12;image=img/lib/azure2/general/Blob_Block.svg;" vertex="1" parent="1"><mxGeometry x="758" y="834" width="65" height="52" as="geometry"/></mxCell><mxCell id="119" value="Key Vault" style="aspect=fixed;html=1;points=[];align=center;image;fontSize=12;image=img/lib/azure2/security/Key_Vaults.svg;" vertex="1" parent="1"><mxGeometry x="756" y="954" width="68" height="68" as="geometry"/></mxCell><mxCell id="121" value="" style="endArrow=oval;startArrow=oval;html=1;rounded=0;exitX=1;exitY=0.5;exitDx=0;exitDy=0;startFill=1;endFill=1;entryX=0;entryY=0.959;entryDx=0;entryDy=0;entryPerimeter=0;" edge="1" parent="1" target="114"><mxGeometry width="50" height="50" relative="1" as="geometry"><mxPoint x="620" y="1058.17" as="sourcePoint"/><mxPoint x="700" y="1058.17" as="targetPoint"/></mxGeometry></mxCell><mxCell id="122" value="" style="aspect=fixed;html=1;points=[];align=center;image;fontSize=12;image=img/lib/azure2/other/Peering_Service.svg;" vertex="1" parent="1"><mxGeometry x="870" y="481.19" width="48" height="48.71" as="geometry"/></mxCell><mxCell id="123" value="" style="endArrow=classic;startArrow=classic;html=1;rounded=0;entryX=1;entryY=0.5;entryDx=0;entryDy=0;" edge="1" parent="1" source="122" target="h-mfdgKE4E6g7ha8phpf-3"><mxGeometry width="50" height="50" relative="1" as="geometry"><mxPoint x="630" y="590" as="sourcePoint"/><mxPoint x="680" y="540" as="targetPoint"/><Array as="points"><mxPoint x="894" y="225"/></Array></mxGeometry></mxCell><mxCell id="125" value="" style="endArrow=classic;startArrow=classic;html=1;rounded=0;exitX=1;exitY=0.913;exitDx=0;exitDy=0;exitPerimeter=0;" edge="1" parent="1" source="92" target="122"><mxGeometry width="50" height="50" relative="1" as="geometry"><mxPoint x="630" y="840" as="sourcePoint"/><mxPoint x="680" y="790" as="targetPoint"/><Array as="points"><mxPoint x="894" y="1121"/></Array></mxGeometry></mxCell><mxCell id="126" value="NAT Gateway" style="aspect=fixed;html=1;points=[];align=center;image;fontSize=12;image=img/lib/azure2/networking/NAT.svg;labelPosition=center;verticalLabelPosition=top;verticalAlign=bottom;" vertex="1" parent="1"><mxGeometry x="10" y="220" width="48" height="48" as="geometry"/></mxCell><mxCell id="127" value="" style="endArrow=classic;html=1;rounded=0;exitX=0;exitY=0.5;exitDx=0;exitDy=0;" edge="1" parent="1" source="54" target="126"><mxGeometry width="50" height="50" relative="1" as="geometry"><mxPoint x="170" y="460" as="sourcePoint"/><mxPoint x="220" y="410" as="targetPoint"/></mxGeometry></mxCell><mxCell id="128" value="Public internet" style="rounded=0;whiteSpace=wrap;html=1;align=left;verticalAlign=top;" vertex="1" parent="1"><mxGeometry x="-190" y="40" width="120" height="220" as="geometry"/></mxCell><mxCell id="129" value="Remote employee" style="aspect=fixed;perimeter=ellipsePerimeter;html=1;align=center;shadow=0;dashed=0;fontColor=#000000;labelBackgroundColor=#ffffff;fontSize=12;spacingTop=3;image;image=img/lib/ibm/users/user.svg;" vertex="1" parent="1"><mxGeometry x="-160" y="109.85" width="60" height="60" as="geometry"/></mxCell><mxCell id="130" value="" style="endArrow=classic;html=1;rounded=0;fontColor=#000000;startArrow=classic;startFill=1;" edge="1" parent="1" source="129" target="8"><mxGeometry width="50" height="50" relative="1" as="geometry"><mxPoint x="10" y="380" as="sourcePoint"/><mxPoint x="60" y="330" as="targetPoint"/></mxGeometry></mxCell><mxCell id="131" value="Public internet" style="rounded=0;whiteSpace=wrap;html=1;align=left;verticalAlign=top;" vertex="1" parent="1"><mxGeometry x="-190" y="320" width="120" height="280" as="geometry"/></mxCell><mxCell id="132" value="User" style="aspect=fixed;perimeter=ellipsePerimeter;html=1;align=center;shadow=0;dashed=0;fontColor=#000000;labelBackgroundColor=#ffffff;fontSize=12;spacingTop=3;image;image=img/lib/ibm/users/user.svg;" vertex="1" parent="1"><mxGeometry x="-160" y="380" width="60" height="60" as="geometry"/></mxCell><mxCell id="133" value="VPN&lt;br&gt;gateway" style="aspect=fixed;html=1;points=[];align=center;image;fontSize=12;image=img/lib/azure2/networking/Virtual_Network_Gateways.svg;labelPosition=center;verticalLabelPosition=bottom;verticalAlign=top;" vertex="1" parent="1"><mxGeometry x="184" y="119.99999999999997" width="30" height="39.81" as="geometry"/></mxCell><mxCell id="135" value="Ingress" style="rounded=0;whiteSpace=wrap;html=1;align=left;verticalAlign=top;" vertex="1" parent="1"><mxGeometry x="293.75" y="99.95" width="130" height="100" as="geometry"/></mxCell><mxCell id="136" value="VPN&lt;br&gt;server" style="aspect=fixed;html=1;points=[];align=center;image;fontSize=12;image=img/lib/azure2/networking/Virtual_Network_Gateways.svg;labelPosition=center;verticalLabelPosition=bottom;verticalAlign=top;" vertex="1" parent="1"><mxGeometry x="313.75" y="119.94999999999997" width="30" height="39.81" as="geometry"/></mxCell><mxCell id="137" value="VPN&lt;br&gt;gateway" style="aspect=fixed;html=1;points=[];align=center;image;fontSize=12;image=img/lib/azure2/networking/Virtual_Network_Gateways.svg;labelPosition=center;verticalLabelPosition=bottom;verticalAlign=top;" vertex="1" parent="1"><mxGeometry x="377.75" y="119.94999999999997" width="30" height="39.81" as="geometry"/></mxCell><mxCell id="138" value="Ingress" style="rounded=0;whiteSpace=wrap;html=1;align=left;verticalAlign=top;" vertex="1" parent="1"><mxGeometry x="480" y="100" width="130" height="100" as="geometry"/></mxCell><mxCell id="139" value="VPN&lt;br&gt;server" style="aspect=fixed;html=1;points=[];align=center;image;fontSize=12;image=img/lib/azure2/networking/Virtual_Network_Gateways.svg;labelPosition=center;verticalLabelPosition=bottom;verticalAlign=top;" vertex="1" parent="1"><mxGeometry x="500" y="119.99999999999997" width="30" height="39.81" as="geometry"/></mxCell><mxCell id="140" value="VPN&lt;br&gt;gateway" style="aspect=fixed;html=1;points=[];align=center;image;fontSize=12;image=img/lib/azure2/networking/Virtual_Network_Gateways.svg;labelPosition=center;verticalLabelPosition=bottom;verticalAlign=top;" vertex="1" parent="1"><mxGeometry x="564" y="119.99999999999997" width="30" height="39.81" as="geometry"/></mxCell><mxCell id="141" value="Public internet" style="rounded=0;whiteSpace=wrap;html=1;align=left;verticalAlign=top;" vertex="1" parent="1"><mxGeometry x="1010" y="-30" width="120" height="277.65" as="geometry"/></mxCell><mxCell id="142" value="Remote&lt;br&gt;employee" style="aspect=fixed;perimeter=ellipsePerimeter;html=1;align=center;shadow=0;dashed=0;fontColor=#000000;labelBackgroundColor=#ffffff;fontSize=12;spacingTop=3;image;image=img/lib/ibm/users/user.svg;" vertex="1" parent="1"><mxGeometry x="1040" y="49.85" width="60" height="60" as="geometry"/></mxCell><mxCell id="143" value="" style="endArrow=classic;startArrow=classic;html=1;rounded=0;fontColor=#000000;entryX=-0.008;entryY=0.609;entryDx=0;entryDy=0;entryPerimeter=0;" edge="1" parent="1" source="140" target="141"><mxGeometry width="50" height="50" relative="1" as="geometry"><mxPoint x="780" y="380" as="sourcePoint"/><mxPoint x="830" y="330" as="targetPoint"/></mxGeometry></mxCell><mxCell id="144" value="WAN" style="aspect=fixed;html=1;points=[];align=center;image;fontSize=12;image=img/lib/azure2/networking/Virtual_WANs.svg;fontColor=#000000;" vertex="1" parent="1"><mxGeometry x="820" y="10" width="65" height="64" as="geometry"/></mxCell><mxCell id="145" value="" style="endArrow=classic;startArrow=classic;html=1;rounded=0;fontColor=#000000;exitX=1;exitY=0.072;exitDx=0;exitDy=0;exitPerimeter=0;" edge="1" parent="1" source="h-mfdgKE4E6g7ha8phpf-3" target="144"><mxGeometry width="50" height="50" relative="1" as="geometry"><mxPoint x="830" y="380" as="sourcePoint"/><mxPoint x="880" y="330" as="targetPoint"/></mxGeometry></mxCell><mxCell id="146" value="" style="endArrow=classic;startArrow=classic;html=1;rounded=0;fontColor=#000000;entryX=0;entryY=0.25;entryDx=0;entryDy=0;" edge="1" parent="1" source="144" target="141"><mxGeometry width="50" height="50" relative="1" as="geometry"><mxPoint x="870" y="380" as="sourcePoint"/><mxPoint x="920" y="330" as="targetPoint"/></mxGeometry></mxCell><mxCell id="147" value="Load&lt;br&gt;Balancer" style="aspect=fixed;html=1;points=[];align=center;image;fontSize=12;image=img/lib/azure2/networking/Load_Balancers.svg;fontColor=#000000;labelPosition=center;verticalLabelPosition=top;verticalAlign=bottom;" vertex="1" parent="1"><mxGeometry x="8" y="362" width="52" height="52" as="geometry"/></mxCell><mxCell id="150" value="" style="endArrow=classic;html=1;rounded=0;fontColor=#000000;entryX=0;entryY=0.5;entryDx=0;entryDy=0;" edge="1" parent="1" source="147" target="97"><mxGeometry width="50" height="50" relative="1" as="geometry"><mxPoint x="140" y="420" as="sourcePoint"/><mxPoint x="190" y="370" as="targetPoint"/><Array as="points"><mxPoint x="30" y="935"/></Array></mxGeometry></mxCell><mxCell id="151" value="" style="endArrow=classic;html=1;rounded=0;fontColor=#000000;exitX=1;exitY=0.25;exitDx=0;exitDy=0;" edge="1" parent="1" source="131" target="147"><mxGeometry width="50" height="50" relative="1" as="geometry"><mxPoint x="-70" y="369" as="sourcePoint"/><mxPoint x="190" y="380" as="targetPoint"/></mxGeometry></mxCell><mxCell id="152" value="Private&lt;br&gt;Load&lt;br&gt;Balancer" style="aspect=fixed;html=1;points=[];align=center;image;fontSize=12;image=img/lib/azure2/networking/Load_Balancers.svg;fontColor=#000000;labelPosition=center;verticalLabelPosition=top;verticalAlign=bottom;" vertex="1" parent="1"><mxGeometry x="670.5" y="337.25" width="55.5" height="55.5" as="geometry"/></mxCell><mxCell id="153" value="" style="endArrow=classic;html=1;rounded=0;fontColor=#000000;entryX=1;entryY=0.5;entryDx=0;entryDy=0;" edge="1" parent="1" source="152" target="22"><mxGeometry width="50" height="50" relative="1" as="geometry"><mxPoint x="770" y="430" as="sourcePoint"/><mxPoint x="820" y="380" as="targetPoint"/></mxGeometry></mxCell><mxCell id="154" value="" style="endArrow=classic;html=1;rounded=0;fontColor=#000000;exitX=1;exitY=0.25;exitDx=0;exitDy=0;" edge="1" parent="1" source="59" target="152"><mxGeometry width="50" height="50" relative="1" as="geometry"><mxPoint x="770" y="430" as="sourcePoint"/><mxPoint x="820" y="380" as="targetPoint"/><Array as="points"><mxPoint x="698" y="530"/></Array></mxGeometry></mxCell><mxCell id="155" value="" style="endArrow=classic;html=1;rounded=0;fontColor=#000000;jumpStyle=none;exitX=1;exitY=0.25;exitDx=0;exitDy=0;" edge="1" parent="1" source="96" target="152"><mxGeometry width="50" height="50" relative="1" as="geometry"><mxPoint x="770" y="740" as="sourcePoint"/><mxPoint x="820" y="690" as="targetPoint"/><Array as="points"><mxPoint x="698" y="880"/></Array></mxGeometry></mxCell><mxCell id="120" value="" style="endArrow=oval;startArrow=oval;html=1;rounded=0;exitX=1;exitY=0.5;exitDx=0;exitDy=0;startFill=1;endFill=1;jumpStyle=arc;" edge="1" parent="1" source="74"><mxGeometry width="50" height="50" relative="1" as="geometry"><mxPoint x="630" y="800" as="sourcePoint"/><mxPoint x="730" y="705" as="targetPoint"/></mxGeometry></mxCell><mxCell id="124" value="" style="endArrow=classic;startArrow=classic;html=1;rounded=0;exitX=1.003;exitY=0.106;exitDx=0;exitDy=0;exitPerimeter=0;jumpStyle=arc;" edge="1" parent="1" source="55" target="122"><mxGeometry width="50" height="50" relative="1" as="geometry"><mxPoint x="630" y="590" as="sourcePoint"/><mxPoint x="680" y="540" as="targetPoint"/></mxGeometry></mxCell></root></mxGraphModel></diagram><diagram name="Standard" id="cOK6Yn9Cqrvdnbu7fczu"><mxGraphModel dx="1592" dy="1632" grid="1" gridSize="10" guides="1" tooltips="1" connect="1" arrows="1" fold="1" page="1" pageScale="1" pageWidth="1100" pageHeight="850" math="0" shadow="0"><root><mxCell id="_0J6o0tPFPfRbNGa3L3o-0"/><mxCell id="_0J6o0tPFPfRbNGa3L3o-1" parent="_0J6o0tPFPfRbNGa3L3o-0"/><mxCell id="_0J6o0tPFPfRbNGa3L3o-2" value="Azure" style="rounded=0;whiteSpace=wrap;html=1;verticalAlign=top;align=left;" vertex="1" parent="_0J6o0tPFPfRbNGa3L3o-1"><mxGeometry x="-30" y="-30" width="970" height="760" as="geometry"/></mxCell><mxCell id="_0J6o0tPFPfRbNGa3L3o-3" value="Edge VNet" style="rounded=0;whiteSpace=wrap;html=1;verticalAlign=top;align=left;dashed=1;" vertex="1" parent="_0J6o0tPFPfRbNGa3L3o-1"><mxGeometry x="-10" y="10" width="760" height="690" as="geometry"/></mxCell><mxCell id="_0J6o0tPFPfRbNGa3L3o-4" value="" style="aspect=fixed;html=1;points=[];align=center;image;fontSize=12;image=img/lib/azure2/networking/Virtual_Networks.svg;" vertex="1" parent="_0J6o0tPFPfRbNGa3L3o-1"><mxGeometry x="700" y="692.05" width="33.5" height="20" as="geometry"/></mxCell><mxCell id="_0J6o0tPFPfRbNGa3L3o-5" value="Zone 1" style="rounded=0;whiteSpace=wrap;html=1;align=center;verticalAlign=top;" vertex="1" parent="_0J6o0tPFPfRbNGa3L3o-1"><mxGeometry x="80" y="50" width="170" height="620" as="geometry"/></mxCell><mxCell id="_0J6o0tPFPfRbNGa3L3o-6" value="Zone 2" style="rounded=0;whiteSpace=wrap;html=1;align=center;verticalAlign=top;" vertex="1" parent="_0J6o0tPFPfRbNGa3L3o-1"><mxGeometry x="275" y="50" width="165" height="620" as="geometry"/></mxCell><mxCell id="_0J6o0tPFPfRbNGa3L3o-7" value="Zone 2" style="rounded=0;whiteSpace=wrap;html=1;align=center;verticalAlign=top;" vertex="1" parent="_0J6o0tPFPfRbNGa3L3o-1"><mxGeometry x="465" y="50" width="165" height="620" as="geometry"/></mxCell><mxCell id="_0J6o0tPFPfRbNGa3L3o-8" value="" style="rounded=0;whiteSpace=wrap;html=1;align=left;verticalAlign=top;" vertex="1" parent="_0J6o0tPFPfRbNGa3L3o-1"><mxGeometry x="90" y="90" width="530" height="120" as="geometry"/></mxCell><mxCell id="_0J6o0tPFPfRbNGa3L3o-9" value="Ingress" style="rounded=0;whiteSpace=wrap;html=1;align=left;verticalAlign=top;" vertex="1" parent="_0J6o0tPFPfRbNGa3L3o-1"><mxGeometry x="100" y="100" width="130" height="100" as="geometry"/></mxCell><mxCell id="_0J6o0tPFPfRbNGa3L3o-10" value="VPN&lt;br&gt;server" style="aspect=fixed;html=1;points=[];align=center;image;fontSize=12;image=img/lib/azure2/networking/Virtual_Network_Gateways.svg;labelPosition=center;verticalLabelPosition=bottom;verticalAlign=top;" vertex="1" parent="_0J6o0tPFPfRbNGa3L3o-1"><mxGeometry x="120" y="119.99999999999997" width="30" height="39.81" as="geometry"/></mxCell><mxCell id="_0J6o0tPFPfRbNGa3L3o-11" value="" style="rounded=0;whiteSpace=wrap;html=1;align=left;verticalAlign=top;" vertex="1" parent="_0J6o0tPFPfRbNGa3L3o-1"><mxGeometry x="90" y="220" width="530" height="90" as="geometry"/></mxCell><mxCell id="_0J6o0tPFPfRbNGa3L3o-12" value="Bastion subnet" style="rounded=0;whiteSpace=wrap;html=1;align=left;verticalAlign=top;" vertex="1" parent="_0J6o0tPFPfRbNGa3L3o-1"><mxGeometry x="97.5" y="230" width="130" height="70" as="geometry"/></mxCell><mxCell id="_0J6o0tPFPfRbNGa3L3o-13" value="Bastion subnet" style="rounded=0;whiteSpace=wrap;html=1;align=left;verticalAlign=top;" vertex="1" parent="_0J6o0tPFPfRbNGa3L3o-1"><mxGeometry x="292.5" y="230" width="130" height="70" as="geometry"/></mxCell><mxCell id="_0J6o0tPFPfRbNGa3L3o-14" value="Bastion subnet" style="rounded=0;whiteSpace=wrap;html=1;align=left;verticalAlign=top;" vertex="1" parent="_0J6o0tPFPfRbNGa3L3o-1"><mxGeometry x="480" y="230" width="130" height="70" as="geometry"/></mxCell><mxCell id="_0J6o0tPFPfRbNGa3L3o-15" value="Bastion" style="aspect=fixed;html=1;points=[];align=right;image;fontSize=12;image=img/lib/azure2/networking/Front_Doors.svg;labelPosition=left;verticalLabelPosition=middle;verticalAlign=middle;" vertex="1" parent="_0J6o0tPFPfRbNGa3L3o-1"><mxGeometry x="162" y="247.65" width="48" height="42.35" as="geometry"/></mxCell><mxCell id="_0J6o0tPFPfRbNGa3L3o-16" value="Bastion" style="aspect=fixed;html=1;points=[];align=right;image;fontSize=12;image=img/lib/azure2/networking/Front_Doors.svg;labelPosition=left;verticalLabelPosition=middle;verticalAlign=middle;" vertex="1" parent="_0J6o0tPFPfRbNGa3L3o-1"><mxGeometry x="362" y="247.65" width="48" height="42.35" as="geometry"/></mxCell><mxCell id="_0J6o0tPFPfRbNGa3L3o-17" value="Bastion" style="aspect=fixed;html=1;points=[];align=right;image;fontSize=12;image=img/lib/azure2/networking/Front_Doors.svg;labelPosition=left;verticalLabelPosition=middle;verticalAlign=middle;" vertex="1" parent="_0J6o0tPFPfRbNGa3L3o-1"><mxGeometry x="552" y="247.64999999999998" width="48" height="42.35" as="geometry"/></mxCell><mxCell id="_0J6o0tPFPfRbNGa3L3o-18" value="" style="rounded=0;whiteSpace=wrap;html=1;align=left;verticalAlign=top;" vertex="1" parent="_0J6o0tPFPfRbNGa3L3o-1"><mxGeometry x="90" y="320" width="530" height="90" as="geometry"/></mxCell><mxCell id="_0J6o0tPFPfRbNGa3L3o-19" value="Egress subnet" style="rounded=0;whiteSpace=wrap;html=1;align=left;verticalAlign=top;" vertex="1" parent="_0J6o0tPFPfRbNGa3L3o-1"><mxGeometry x="98.75" y="330" width="130" height="70" as="geometry"/></mxCell><mxCell id="_0J6o0tPFPfRbNGa3L3o-20" value="Egress subnet" style="rounded=0;whiteSpace=wrap;html=1;align=left;verticalAlign=top;" vertex="1" parent="_0J6o0tPFPfRbNGa3L3o-1"><mxGeometry x="293.75" y="330" width="130" height="70" as="geometry"/></mxCell><mxCell id="_0J6o0tPFPfRbNGa3L3o-21" value="Egress subnet" style="rounded=0;whiteSpace=wrap;html=1;align=left;verticalAlign=top;" vertex="1" parent="_0J6o0tPFPfRbNGa3L3o-1"><mxGeometry x="481.25" y="330" width="130" height="70" as="geometry"/></mxCell><mxCell id="_0J6o0tPFPfRbNGa3L3o-22" value="Proxy" style="pointerEvents=1;shadow=0;dashed=0;html=1;strokeColor=none;fillColor=#4495D1;labelPosition=left;verticalLabelPosition=middle;verticalAlign=middle;align=right;outlineConnect=0;shape=mxgraph.veeam.2d.proxy;" vertex="1" parent="_0J6o0tPFPfRbNGa3L3o-1"><mxGeometry x="170" y="350" width="40" height="37.4" as="geometry"/></mxCell><mxCell id="_0J6o0tPFPfRbNGa3L3o-23" value="Proxy" style="pointerEvents=1;shadow=0;dashed=0;html=1;strokeColor=none;fillColor=#4495D1;labelPosition=left;verticalLabelPosition=middle;verticalAlign=middle;align=right;outlineConnect=0;shape=mxgraph.veeam.2d.proxy;" vertex="1" parent="_0J6o0tPFPfRbNGa3L3o-1"><mxGeometry x="366" y="350" width="40" height="37.4" as="geometry"/></mxCell><mxCell id="_0J6o0tPFPfRbNGa3L3o-24" value="Proxy" style="pointerEvents=1;shadow=0;dashed=0;html=1;strokeColor=none;fillColor=#4495D1;labelPosition=left;verticalLabelPosition=middle;verticalAlign=middle;align=right;outlineConnect=0;shape=mxgraph.veeam.2d.proxy;" vertex="1" parent="_0J6o0tPFPfRbNGa3L3o-1"><mxGeometry x="560" y="350" width="40" height="37.4" as="geometry"/></mxCell><mxCell id="_0J6o0tPFPfRbNGa3L3o-30" value="" style="rounded=0;whiteSpace=wrap;html=1;align=left;verticalAlign=top;" vertex="1" parent="_0J6o0tPFPfRbNGa3L3o-1"><mxGeometry x="90" y="432.42999999999995" width="530" height="110.1" as="geometry"/></mxCell><mxCell id="_0J6o0tPFPfRbNGa3L3o-31" value="Worker subnet" style="rounded=0;whiteSpace=wrap;html=1;align=left;verticalAlign=top;" vertex="1" parent="_0J6o0tPFPfRbNGa3L3o-1"><mxGeometry x="100" y="442.53" width="130" height="80" as="geometry"/></mxCell><mxCell id="_0J6o0tPFPfRbNGa3L3o-32" value="" style="rounded=0;whiteSpace=wrap;html=1;align=left;verticalAlign=top;" vertex="1" parent="_0J6o0tPFPfRbNGa3L3o-1"><mxGeometry x="90" y="562.53" width="530" height="90" as="geometry"/></mxCell><mxCell id="_0J6o0tPFPfRbNGa3L3o-33" value="VPE subnet" style="rounded=0;whiteSpace=wrap;html=1;align=left;verticalAlign=top;" vertex="1" parent="_0J6o0tPFPfRbNGa3L3o-1"><mxGeometry x="98.75" y="572.53" width="130" height="70" as="geometry"/></mxCell><mxCell id="_0J6o0tPFPfRbNGa3L3o-34" value="VPE subnet" style="rounded=0;whiteSpace=wrap;html=1;align=left;verticalAlign=top;" vertex="1" parent="_0J6o0tPFPfRbNGa3L3o-1"><mxGeometry x="293.75" y="572.53" width="130" height="70" as="geometry"/></mxCell><mxCell id="_0J6o0tPFPfRbNGa3L3o-35" value="VPE subnet" style="rounded=0;whiteSpace=wrap;html=1;align=left;verticalAlign=top;" vertex="1" parent="_0J6o0tPFPfRbNGa3L3o-1"><mxGeometry x="481.25" y="572.53" width="130" height="70" as="geometry"/></mxCell><mxCell id="_0J6o0tPFPfRbNGa3L3o-36" value="" style="sketch=0;aspect=fixed;html=1;points=[];align=center;image;fontSize=12;image=img/lib/mscae/OpenShift.svg;" vertex="1" parent="_0J6o0tPFPfRbNGa3L3o-1"><mxGeometry x="110" y="472.53" width="50" height="46" as="geometry"/></mxCell><mxCell id="_0J6o0tPFPfRbNGa3L3o-37" value="" style="sketch=0;aspect=fixed;html=1;points=[];align=center;image;fontSize=12;image=img/lib/mscae/OpenShift.svg;" vertex="1" parent="_0J6o0tPFPfRbNGa3L3o-1"><mxGeometry x="170" y="464.48" width="50" height="46" as="geometry"/></mxCell><mxCell id="_0J6o0tPFPfRbNGa3L3o-38" value="Worker subnet" style="rounded=0;whiteSpace=wrap;html=1;align=left;verticalAlign=top;" vertex="1" parent="_0J6o0tPFPfRbNGa3L3o-1"><mxGeometry x="292.5" y="447.48" width="130" height="80" as="geometry"/></mxCell><mxCell id="_0J6o0tPFPfRbNGa3L3o-39" value="" style="sketch=0;aspect=fixed;html=1;points=[];align=center;image;fontSize=12;image=img/lib/mscae/OpenShift.svg;" vertex="1" parent="_0J6o0tPFPfRbNGa3L3o-1"><mxGeometry x="302.5" y="477.48" width="50" height="46" as="geometry"/></mxCell><mxCell id="_0J6o0tPFPfRbNGa3L3o-40" value="" style="sketch=0;aspect=fixed;html=1;points=[];align=center;image;fontSize=12;image=img/lib/mscae/OpenShift.svg;" vertex="1" parent="_0J6o0tPFPfRbNGa3L3o-1"><mxGeometry x="362.5" y="469.43000000000006" width="50" height="46" as="geometry"/></mxCell><mxCell id="_0J6o0tPFPfRbNGa3L3o-41" value="Worker subnet" style="rounded=0;whiteSpace=wrap;html=1;align=left;verticalAlign=top;" vertex="1" parent="_0J6o0tPFPfRbNGa3L3o-1"><mxGeometry x="480" y="447.48" width="130" height="80" as="geometry"/></mxCell><mxCell id="_0J6o0tPFPfRbNGa3L3o-42" value="" style="sketch=0;aspect=fixed;html=1;points=[];align=center;image;fontSize=12;image=img/lib/mscae/OpenShift.svg;" vertex="1" parent="_0J6o0tPFPfRbNGa3L3o-1"><mxGeometry x="490" y="477.48" width="50" height="46" as="geometry"/></mxCell><mxCell id="_0J6o0tPFPfRbNGa3L3o-43" value="" style="sketch=0;aspect=fixed;html=1;points=[];align=center;image;fontSize=12;image=img/lib/mscae/OpenShift.svg;" vertex="1" parent="_0J6o0tPFPfRbNGa3L3o-1"><mxGeometry x="550" y="469.43000000000006" width="50" height="46" as="geometry"/></mxCell><mxCell id="_0J6o0tPFPfRbNGa3L3o-44" value="" style="aspect=fixed;html=1;points=[];align=center;image;fontSize=12;image=img/lib/azure2/networking/Private_Endpoint.svg;" vertex="1" parent="_0J6o0tPFPfRbNGa3L3o-1"><mxGeometry x="170" y="591.03" width="44" height="40.34" as="geometry"/></mxCell><mxCell id="_0J6o0tPFPfRbNGa3L3o-45" value="" style="aspect=fixed;html=1;points=[];align=center;image;fontSize=12;image=img/lib/azure2/networking/Private_Endpoint.svg;" vertex="1" parent="_0J6o0tPFPfRbNGa3L3o-1"><mxGeometry x="362.5" y="591.03" width="44" height="40.34" as="geometry"/></mxCell><mxCell id="_0J6o0tPFPfRbNGa3L3o-46" value="" style="aspect=fixed;html=1;points=[];align=center;image;fontSize=12;image=img/lib/azure2/networking/Private_Endpoint.svg;" vertex="1" parent="_0J6o0tPFPfRbNGa3L3o-1"><mxGeometry x="553" y="591.03" width="44" height="40.34" as="geometry"/></mxCell><mxCell id="_0J6o0tPFPfRbNGa3L3o-69" value="Cloud services" style="rounded=0;whiteSpace=wrap;html=1;align=left;verticalAlign=top;" vertex="1" parent="_0J6o0tPFPfRbNGa3L3o-1"><mxGeometry x="780" y="157" width="120" height="543" as="geometry"/></mxCell><mxCell id="_0J6o0tPFPfRbNGa3L3o-70" value="Montoring" style="aspect=fixed;html=1;points=[];align=center;image;fontSize=12;image=img/lib/azure2/management_governance/Monitor.svg;" vertex="1" parent="_0J6o0tPFPfRbNGa3L3o-1"><mxGeometry x="808" y="212.05" width="64" height="64" as="geometry"/></mxCell><mxCell id="_0J6o0tPFPfRbNGa3L3o-71" value="Log Analytics" style="aspect=fixed;html=1;points=[];align=center;image;fontSize=12;image=img/lib/azure2/analytics/Log_Analytics_Workspaces.svg;" vertex="1" parent="_0J6o0tPFPfRbNGa3L3o-1"><mxGeometry x="808" y="322.05000000000007" width="64" height="64" as="geometry"/></mxCell><mxCell id="_0J6o0tPFPfRbNGa3L3o-72" value="Blob Storage" style="aspect=fixed;html=1;points=[];align=center;image;fontSize=12;image=img/lib/azure2/general/Blob_Block.svg;" vertex="1" parent="_0J6o0tPFPfRbNGa3L3o-1"><mxGeometry x="808" y="446.05" width="65" height="52" as="geometry"/></mxCell><mxCell id="_0J6o0tPFPfRbNGa3L3o-73" value="Key Vault" style="aspect=fixed;html=1;points=[];align=center;image;fontSize=12;image=img/lib/azure2/security/Key_Vaults.svg;" vertex="1" parent="_0J6o0tPFPfRbNGa3L3o-1"><mxGeometry x="806" y="566.05" width="68" height="68" as="geometry"/></mxCell><mxCell id="_0J6o0tPFPfRbNGa3L3o-78" value="NAT Gateway" style="aspect=fixed;html=1;points=[];align=center;image;fontSize=12;image=img/lib/azure2/networking/NAT.svg;labelPosition=center;verticalLabelPosition=top;verticalAlign=bottom;" vertex="1" parent="_0J6o0tPFPfRbNGa3L3o-1"><mxGeometry x="10" y="220" width="48" height="48" as="geometry"/></mxCell><mxCell id="_0J6o0tPFPfRbNGa3L3o-79" value="" style="endArrow=classic;html=1;rounded=0;exitX=0;exitY=0.5;exitDx=0;exitDy=0;" edge="1" parent="_0J6o0tPFPfRbNGa3L3o-1" source="_0J6o0tPFPfRbNGa3L3o-18" target="_0J6o0tPFPfRbNGa3L3o-78"><mxGeometry width="50" height="50" relative="1" as="geometry"><mxPoint x="170" y="460" as="sourcePoint"/><mxPoint x="220" y="410" as="targetPoint"/></mxGeometry></mxCell><mxCell id="_0J6o0tPFPfRbNGa3L3o-80" value="Public internet" style="rounded=0;whiteSpace=wrap;html=1;align=left;verticalAlign=top;" vertex="1" parent="_0J6o0tPFPfRbNGa3L3o-1"><mxGeometry x="-190" y="40" width="120" height="220" as="geometry"/></mxCell><mxCell id="_0J6o0tPFPfRbNGa3L3o-81" value="Remote employee" style="aspect=fixed;perimeter=ellipsePerimeter;html=1;align=center;shadow=0;dashed=0;fontColor=#000000;labelBackgroundColor=#ffffff;fontSize=12;spacingTop=3;image;image=img/lib/ibm/users/user.svg;" vertex="1" parent="_0J6o0tPFPfRbNGa3L3o-1"><mxGeometry x="-160" y="109.85" width="60" height="60" as="geometry"/></mxCell><mxCell id="_0J6o0tPFPfRbNGa3L3o-82" value="" style="endArrow=classic;html=1;rounded=0;fontColor=#000000;startArrow=classic;startFill=1;" edge="1" parent="_0J6o0tPFPfRbNGa3L3o-1" source="_0J6o0tPFPfRbNGa3L3o-81" target="_0J6o0tPFPfRbNGa3L3o-10"><mxGeometry width="50" height="50" relative="1" as="geometry"><mxPoint x="10" y="380" as="sourcePoint"/><mxPoint x="60" y="330" as="targetPoint"/></mxGeometry></mxCell><mxCell id="_0J6o0tPFPfRbNGa3L3o-83" value="Public internet" style="rounded=0;whiteSpace=wrap;html=1;align=left;verticalAlign=top;" vertex="1" parent="_0J6o0tPFPfRbNGa3L3o-1"><mxGeometry x="-190" y="320" width="120" height="280" as="geometry"/></mxCell><mxCell id="_0J6o0tPFPfRbNGa3L3o-84" value="User" style="aspect=fixed;perimeter=ellipsePerimeter;html=1;align=center;shadow=0;dashed=0;fontColor=#000000;labelBackgroundColor=#ffffff;fontSize=12;spacingTop=3;image;image=img/lib/ibm/users/user.svg;" vertex="1" parent="_0J6o0tPFPfRbNGa3L3o-1"><mxGeometry x="-160" y="380" width="60" height="60" as="geometry"/></mxCell><mxCell id="_0J6o0tPFPfRbNGa3L3o-85" value="VPN&lt;br&gt;gateway" style="aspect=fixed;html=1;points=[];align=center;image;fontSize=12;image=img/lib/azure2/networking/Virtual_Network_Gateways.svg;labelPosition=center;verticalLabelPosition=bottom;verticalAlign=top;" vertex="1" parent="_0J6o0tPFPfRbNGa3L3o-1"><mxGeometry x="184" y="119.99999999999997" width="30" height="39.81" as="geometry"/></mxCell><mxCell id="_0J6o0tPFPfRbNGa3L3o-86" value="Ingress" style="rounded=0;whiteSpace=wrap;html=1;align=left;verticalAlign=top;" vertex="1" parent="_0J6o0tPFPfRbNGa3L3o-1"><mxGeometry x="293.75" y="99.95" width="130" height="100" as="geometry"/></mxCell><mxCell id="_0J6o0tPFPfRbNGa3L3o-87" value="VPN&lt;br&gt;server" style="aspect=fixed;html=1;points=[];align=center;image;fontSize=12;image=img/lib/azure2/networking/Virtual_Network_Gateways.svg;labelPosition=center;verticalLabelPosition=bottom;verticalAlign=top;" vertex="1" parent="_0J6o0tPFPfRbNGa3L3o-1"><mxGeometry x="313.75" y="119.94999999999997" width="30" height="39.81" as="geometry"/></mxCell><mxCell id="_0J6o0tPFPfRbNGa3L3o-88" value="VPN&lt;br&gt;gateway" style="aspect=fixed;html=1;points=[];align=center;image;fontSize=12;image=img/lib/azure2/networking/Virtual_Network_Gateways.svg;labelPosition=center;verticalLabelPosition=bottom;verticalAlign=top;" vertex="1" parent="_0J6o0tPFPfRbNGa3L3o-1"><mxGeometry x="377.75" y="119.94999999999997" width="30" height="39.81" as="geometry"/></mxCell><mxCell id="_0J6o0tPFPfRbNGa3L3o-89" value="Ingress" style="rounded=0;whiteSpace=wrap;html=1;align=left;verticalAlign=top;" vertex="1" parent="_0J6o0tPFPfRbNGa3L3o-1"><mxGeometry x="480" y="100" width="130" height="100" as="geometry"/></mxCell><mxCell id="_0J6o0tPFPfRbNGa3L3o-90" value="VPN&lt;br&gt;server" style="aspect=fixed;html=1;points=[];align=center;image;fontSize=12;image=img/lib/azure2/networking/Virtual_Network_Gateways.svg;labelPosition=center;verticalLabelPosition=bottom;verticalAlign=top;" vertex="1" parent="_0J6o0tPFPfRbNGa3L3o-1"><mxGeometry x="500" y="119.99999999999997" width="30" height="39.81" as="geometry"/></mxCell><mxCell id="_0J6o0tPFPfRbNGa3L3o-91" value="VPN&lt;br&gt;gateway" style="aspect=fixed;html=1;points=[];align=center;image;fontSize=12;image=img/lib/azure2/networking/Virtual_Network_Gateways.svg;labelPosition=center;verticalLabelPosition=bottom;verticalAlign=top;" vertex="1" parent="_0J6o0tPFPfRbNGa3L3o-1"><mxGeometry x="564" y="119.99999999999997" width="30" height="39.81" as="geometry"/></mxCell><mxCell id="_0J6o0tPFPfRbNGa3L3o-92" value="Public internet" style="rounded=0;whiteSpace=wrap;html=1;align=left;verticalAlign=top;" vertex="1" parent="_0J6o0tPFPfRbNGa3L3o-1"><mxGeometry x="1010" y="-30" width="120" height="277.65" as="geometry"/></mxCell><mxCell id="_0J6o0tPFPfRbNGa3L3o-93" value="Remote&lt;br&gt;employee" style="aspect=fixed;perimeter=ellipsePerimeter;html=1;align=center;shadow=0;dashed=0;fontColor=#000000;labelBackgroundColor=#ffffff;fontSize=12;spacingTop=3;image;image=img/lib/ibm/users/user.svg;" vertex="1" parent="_0J6o0tPFPfRbNGa3L3o-1"><mxGeometry x="1040" y="49.85" width="60" height="60" as="geometry"/></mxCell><mxCell id="_0J6o0tPFPfRbNGa3L3o-94" value="" style="endArrow=classic;startArrow=classic;html=1;rounded=0;fontColor=#000000;entryX=-0.008;entryY=0.609;entryDx=0;entryDy=0;entryPerimeter=0;" edge="1" parent="_0J6o0tPFPfRbNGa3L3o-1" source="_0J6o0tPFPfRbNGa3L3o-91" target="_0J6o0tPFPfRbNGa3L3o-92"><mxGeometry width="50" height="50" relative="1" as="geometry"><mxPoint x="780" y="380" as="sourcePoint"/><mxPoint x="830" y="330" as="targetPoint"/></mxGeometry></mxCell><mxCell id="_0J6o0tPFPfRbNGa3L3o-95" value="WAN" style="aspect=fixed;html=1;points=[];align=center;image;fontSize=12;image=img/lib/azure2/networking/Virtual_WANs.svg;fontColor=#000000;" vertex="1" parent="_0J6o0tPFPfRbNGa3L3o-1"><mxGeometry x="820" y="10" width="65" height="64" as="geometry"/></mxCell><mxCell id="_0J6o0tPFPfRbNGa3L3o-96" value="" style="endArrow=classic;startArrow=classic;html=1;rounded=0;fontColor=#000000;exitX=1;exitY=0.039;exitDx=0;exitDy=0;exitPerimeter=0;" edge="1" parent="_0J6o0tPFPfRbNGa3L3o-1" source="_0J6o0tPFPfRbNGa3L3o-3" target="_0J6o0tPFPfRbNGa3L3o-95"><mxGeometry width="50" height="50" relative="1" as="geometry"><mxPoint x="830" y="380" as="sourcePoint"/><mxPoint x="880" y="330" as="targetPoint"/></mxGeometry></mxCell><mxCell id="_0J6o0tPFPfRbNGa3L3o-97" value="" style="endArrow=classic;startArrow=classic;html=1;rounded=0;fontColor=#000000;entryX=0;entryY=0.25;entryDx=0;entryDy=0;" edge="1" parent="_0J6o0tPFPfRbNGa3L3o-1" source="_0J6o0tPFPfRbNGa3L3o-95" target="_0J6o0tPFPfRbNGa3L3o-92"><mxGeometry width="50" height="50" relative="1" as="geometry"><mxPoint x="870" y="380" as="sourcePoint"/><mxPoint x="920" y="330" as="targetPoint"/></mxGeometry></mxCell><mxCell id="_0J6o0tPFPfRbNGa3L3o-98" value="Load&lt;br&gt;Balancer" style="aspect=fixed;html=1;points=[];align=center;image;fontSize=12;image=img/lib/azure2/networking/Load_Balancers.svg;fontColor=#000000;labelPosition=center;verticalLabelPosition=top;verticalAlign=bottom;" vertex="1" parent="_0J6o0tPFPfRbNGa3L3o-1"><mxGeometry x="8" y="362" width="52" height="52" as="geometry"/></mxCell><mxCell id="_0J6o0tPFPfRbNGa3L3o-99" value="" style="endArrow=classic;html=1;rounded=0;fontColor=#000000;entryX=0;entryY=0.5;entryDx=0;entryDy=0;" edge="1" parent="_0J6o0tPFPfRbNGa3L3o-1" source="_0J6o0tPFPfRbNGa3L3o-98" target="_0J6o0tPFPfRbNGa3L3o-30"><mxGeometry width="50" height="50" relative="1" as="geometry"><mxPoint x="140" y="420" as="sourcePoint"/><mxPoint x="190" y="370" as="targetPoint"/><Array as="points"><mxPoint x="30" y="460"/></Array></mxGeometry></mxCell><mxCell id="_0J6o0tPFPfRbNGa3L3o-100" value="" style="endArrow=classic;html=1;rounded=0;fontColor=#000000;exitX=1;exitY=0.25;exitDx=0;exitDy=0;" edge="1" parent="_0J6o0tPFPfRbNGa3L3o-1" source="_0J6o0tPFPfRbNGa3L3o-83" target="_0J6o0tPFPfRbNGa3L3o-98"><mxGeometry width="50" height="50" relative="1" as="geometry"><mxPoint x="-70" y="369" as="sourcePoint"/><mxPoint x="190" y="380" as="targetPoint"/></mxGeometry></mxCell><mxCell id="_0J6o0tPFPfRbNGa3L3o-101" value="Private&lt;br&gt;Load&lt;br&gt;Balancer" style="aspect=fixed;html=1;points=[];align=center;image;fontSize=12;image=img/lib/azure2/networking/Load_Balancers.svg;fontColor=#000000;labelPosition=center;verticalLabelPosition=top;verticalAlign=bottom;" vertex="1" parent="_0J6o0tPFPfRbNGa3L3o-1"><mxGeometry x="670.5" y="337.25" width="55.5" height="55.5" as="geometry"/></mxCell><mxCell id="_0J6o0tPFPfRbNGa3L3o-102" value="" style="endArrow=classic;html=1;rounded=0;fontColor=#000000;entryX=1;entryY=0.5;entryDx=0;entryDy=0;" edge="1" parent="_0J6o0tPFPfRbNGa3L3o-1" source="_0J6o0tPFPfRbNGa3L3o-101" target="_0J6o0tPFPfRbNGa3L3o-21"><mxGeometry width="50" height="50" relative="1" as="geometry"><mxPoint x="770" y="430" as="sourcePoint"/><mxPoint x="820" y="380" as="targetPoint"/></mxGeometry></mxCell><mxCell id="_0J6o0tPFPfRbNGa3L3o-103" value="" style="endArrow=classic;html=1;rounded=0;fontColor=#000000;exitX=1;exitY=0.5;exitDx=0;exitDy=0;" edge="1" parent="_0J6o0tPFPfRbNGa3L3o-1" source="_0J6o0tPFPfRbNGa3L3o-30" target="_0J6o0tPFPfRbNGa3L3o-101"><mxGeometry width="50" height="50" relative="1" as="geometry"><mxPoint x="630" y="567.5" as="sourcePoint"/><mxPoint x="820" y="380" as="targetPoint"/><Array as="points"><mxPoint x="698" y="450"/></Array></mxGeometry></mxCell><mxCell id="_0J6o0tPFPfRbNGa3L3o-105" value="" style="endArrow=oval;startArrow=oval;html=1;rounded=0;exitX=1;exitY=0.5;exitDx=0;exitDy=0;startFill=1;endFill=1;jumpStyle=arc;entryX=0;entryY=0.829;entryDx=0;entryDy=0;entryPerimeter=0;" edge="1" parent="_0J6o0tPFPfRbNGa3L3o-1" source="_0J6o0tPFPfRbNGa3L3o-32" target="_0J6o0tPFPfRbNGa3L3o-69"><mxGeometry width="50" height="50" relative="1" as="geometry"><mxPoint x="630" y="800" as="sourcePoint"/><mxPoint x="730" y="705" as="targetPoint"/></mxGeometry></mxCell></root></mxGraphModel></diagram><diagram name="QuickStart" id="T9qopT3PJjsK0zyHMoS0"><mxGraphModel dx="884" dy="782" grid="1" gridSize="10" guides="1" tooltips="1" connect="1" arrows="1" fold="1" page="1" pageScale="1" pageWidth="1100" pageHeight="850" math="0" shadow="0"><root><mxCell id="gHoLxsW__RnX77sjm0al-0"/><mxCell id="gHoLxsW__RnX77sjm0al-1" parent="gHoLxsW__RnX77sjm0al-0"/><mxCell id="gHoLxsW__RnX77sjm0al-2" value="Azure" style="rounded=0;whiteSpace=wrap;html=1;verticalAlign=top;align=left;" vertex="1" parent="gHoLxsW__RnX77sjm0al-1"><mxGeometry x="30" y="30" width="910" height="500" as="geometry"/></mxCell><mxCell id="gHoLxsW__RnX77sjm0al-3" value="VNet" style="rounded=0;whiteSpace=wrap;html=1;verticalAlign=top;align=left;dashed=1;" vertex="1" parent="gHoLxsW__RnX77sjm0al-1"><mxGeometry x="60" y="70" width="690" height="430" as="geometry"/></mxCell><mxCell id="gHoLxsW__RnX77sjm0al-4" value="" style="aspect=fixed;html=1;points=[];align=center;image;fontSize=12;image=img/lib/azure2/networking/Virtual_Networks.svg;" vertex="1" parent="gHoLxsW__RnX77sjm0al-1"><mxGeometry x="700" y="489.99999999999994" width="33.5" height="20" as="geometry"/></mxCell><mxCell id="gHoLxsW__RnX77sjm0al-5" value="Zone 1" style="rounded=0;whiteSpace=wrap;html=1;align=center;verticalAlign=top;" vertex="1" parent="gHoLxsW__RnX77sjm0al-1"><mxGeometry x="80" y="110" width="170" height="180" as="geometry"/></mxCell><mxCell id="gHoLxsW__RnX77sjm0al-6" value="Zone 2" style="rounded=0;whiteSpace=wrap;html=1;align=center;verticalAlign=top;" vertex="1" parent="gHoLxsW__RnX77sjm0al-1"><mxGeometry x="275" y="110" width="165" height="180" as="geometry"/></mxCell><mxCell id="gHoLxsW__RnX77sjm0al-7" value="Zone 2" style="rounded=0;whiteSpace=wrap;html=1;align=center;verticalAlign=top;" vertex="1" parent="gHoLxsW__RnX77sjm0al-1"><mxGeometry x="465" y="110" width="165" height="180" as="geometry"/></mxCell><mxCell id="gHoLxsW__RnX77sjm0al-25" value="" style="rounded=0;whiteSpace=wrap;html=1;align=left;verticalAlign=top;" vertex="1" parent="gHoLxsW__RnX77sjm0al-1"><mxGeometry x="90" y="155.42999999999995" width="530" height="110.1" as="geometry"/></mxCell><mxCell id="gHoLxsW__RnX77sjm0al-26" value="Worker subnet" style="rounded=0;whiteSpace=wrap;html=1;align=left;verticalAlign=top;" vertex="1" parent="gHoLxsW__RnX77sjm0al-1"><mxGeometry x="100" y="165.52999999999997" width="130" height="80" as="geometry"/></mxCell><mxCell id="gHoLxsW__RnX77sjm0al-31" value="" style="sketch=0;aspect=fixed;html=1;points=[];align=center;image;fontSize=12;image=img/lib/mscae/OpenShift.svg;" vertex="1" parent="gHoLxsW__RnX77sjm0al-1"><mxGeometry x="110" y="195.52999999999997" width="50" height="46" as="geometry"/></mxCell><mxCell id="gHoLxsW__RnX77sjm0al-32" value="" style="sketch=0;aspect=fixed;html=1;points=[];align=center;image;fontSize=12;image=img/lib/mscae/OpenShift.svg;" vertex="1" parent="gHoLxsW__RnX77sjm0al-1"><mxGeometry x="170" y="187.48000000000002" width="50" height="46" as="geometry"/></mxCell><mxCell id="gHoLxsW__RnX77sjm0al-33" value="Worker subnet" style="rounded=0;whiteSpace=wrap;html=1;align=left;verticalAlign=top;" vertex="1" parent="gHoLxsW__RnX77sjm0al-1"><mxGeometry x="292.5" y="170.48000000000002" width="130" height="80" as="geometry"/></mxCell><mxCell id="gHoLxsW__RnX77sjm0al-34" value="" style="sketch=0;aspect=fixed;html=1;points=[];align=center;image;fontSize=12;image=img/lib/mscae/OpenShift.svg;" vertex="1" parent="gHoLxsW__RnX77sjm0al-1"><mxGeometry x="302.5" y="200.48000000000002" width="50" height="46" as="geometry"/></mxCell><mxCell id="gHoLxsW__RnX77sjm0al-35" value="" style="sketch=0;aspect=fixed;html=1;points=[];align=center;image;fontSize=12;image=img/lib/mscae/OpenShift.svg;" vertex="1" parent="gHoLxsW__RnX77sjm0al-1"><mxGeometry x="362.5" y="192.43000000000006" width="50" height="46" as="geometry"/></mxCell><mxCell id="gHoLxsW__RnX77sjm0al-36" value="Worker subnet" style="rounded=0;whiteSpace=wrap;html=1;align=left;verticalAlign=top;" vertex="1" parent="gHoLxsW__RnX77sjm0al-1"><mxGeometry x="480" y="170.48000000000002" width="130" height="80" as="geometry"/></mxCell><mxCell id="gHoLxsW__RnX77sjm0al-37" value="" style="sketch=0;aspect=fixed;html=1;points=[];align=center;image;fontSize=12;image=img/lib/mscae/OpenShift.svg;" vertex="1" parent="gHoLxsW__RnX77sjm0al-1"><mxGeometry x="490" y="200.48000000000002" width="50" height="46" as="geometry"/></mxCell><mxCell id="gHoLxsW__RnX77sjm0al-38" value="" style="sketch=0;aspect=fixed;html=1;points=[];align=center;image;fontSize=12;image=img/lib/mscae/OpenShift.svg;" vertex="1" parent="gHoLxsW__RnX77sjm0al-1"><mxGeometry x="550" y="192.43000000000006" width="50" height="46" as="geometry"/></mxCell><mxCell id="gHoLxsW__RnX77sjm0al-42" value="Cloud services" style="rounded=0;whiteSpace=wrap;html=1;align=left;verticalAlign=top;" vertex="1" parent="gHoLxsW__RnX77sjm0al-1"><mxGeometry x="780" y="110" width="120" height="393" as="geometry"/></mxCell><mxCell id="gHoLxsW__RnX77sjm0al-43" value="Montoring" style="aspect=fixed;html=1;points=[];align=center;image;fontSize=12;image=img/lib/azure2/management_governance/Monitor.svg;" vertex="1" parent="gHoLxsW__RnX77sjm0al-1"><mxGeometry x="808" y="165.05" width="64" height="64" as="geometry"/></mxCell><mxCell id="gHoLxsW__RnX77sjm0al-44" value="Log Analytics" style="aspect=fixed;html=1;points=[];align=center;image;fontSize=12;image=img/lib/azure2/analytics/Log_Analytics_Workspaces.svg;" vertex="1" parent="gHoLxsW__RnX77sjm0al-1"><mxGeometry x="808" y="275.05000000000007" width="64" height="64" as="geometry"/></mxCell><mxCell id="gHoLxsW__RnX77sjm0al-45" value="Blob Storage" style="aspect=fixed;html=1;points=[];align=center;image;fontSize=12;image=img/lib/azure2/general/Blob_Block.svg;" vertex="1" parent="gHoLxsW__RnX77sjm0al-1"><mxGeometry x="808" y="399.05" width="65" height="52" as="geometry"/></mxCell><mxCell id="gHoLxsW__RnX77sjm0al-47" value="NAT Gateway" style="aspect=fixed;html=1;points=[];align=center;image;fontSize=12;image=img/lib/azure2/networking/NAT.svg;labelPosition=center;verticalLabelPosition=top;verticalAlign=bottom;" vertex="1" parent="gHoLxsW__RnX77sjm0al-1"><mxGeometry x="660" y="169.04999999999995" width="48" height="48" as="geometry"/></mxCell><mxCell id="gHoLxsW__RnX77sjm0al-48" value="" style="endArrow=classic;html=1;rounded=0;exitX=1;exitY=0.25;exitDx=0;exitDy=0;" edge="1" parent="gHoLxsW__RnX77sjm0al-1" source="gHoLxsW__RnX77sjm0al-36" target="gHoLxsW__RnX77sjm0al-47"><mxGeometry width="50" height="50" relative="1" as="geometry"><mxPoint x="170" y="183" as="sourcePoint"/><mxPoint x="220" y="133" as="targetPoint"/></mxGeometry></mxCell><mxCell id="gHoLxsW__RnX77sjm0al-73" value="" style="endArrow=oval;startArrow=oval;html=1;rounded=0;exitX=1;exitY=0.75;exitDx=0;exitDy=0;startFill=1;endFill=1;jumpStyle=arc;entryX=-0.017;entryY=0.326;entryDx=0;entryDy=0;entryPerimeter=0;" edge="1" parent="gHoLxsW__RnX77sjm0al-1" source="gHoLxsW__RnX77sjm0al-25" target="gHoLxsW__RnX77sjm0al-42"><mxGeometry width="50" height="50" relative="1" as="geometry"><mxPoint x="620" y="330.52999999999975" as="sourcePoint"/><mxPoint x="730" y="428" as="targetPoint"/></mxGeometry></mxCell></root></mxGraphModel></diagram></mxfile>